<?xml version="1.0" encoding="utf-8"?>
<!-- Generator: Adobe Illustrator 16.0.0, SVG Export Plug-In . SVG Version: 6.00 Build 0)  -->
<!DOCTYPE svg PUBLIC "-//W3C//DTD SVG 1.1//EN" "http://www.w3.org/Graphics/SVG/1.1/DTD/svg11.dtd">
<svg version="1.1" id="Layer_1" xmlns="http://www.w3.org/2000/svg" xmlns:xlink="http://www.w3.org/1999/xlink" x="0px" y="0px"
	 width="245px" height="392px" viewBox="0 0 245 392" enable-background="new 0 0 245 392" xml:space="preserve">
<path fill="#141419" d="M82.92,21.652c-18.957,4.062-23.334,8.378-31.725,13.541c-7.543,4.644-24.761,21.472-24.761,38.882
	c0,17.41-2.321,48.745-2.321,53.002c0,4.254,1.276,25.502,1.662,30.918c0.388,5.418,6.384,15.232,5.805,30.328
	c-0.267,7.002-6.095,14.498-4.372,30.443c2.81,26,12.604,19.658,9.593,37.734c-2.321,13.926,0.183,25.963,0.183,34.086
	c0,8.125,9.683,15.785,6.2,32.064c-2.554,11.945,9.962,18.084,11.896,25.822c1.936,7.738,32.26,23.502,34.582,10.736
	c3.029-16.65-4.82-56.148-10.131-64.994c-5.4-8.994,4.26-24.627,3.789-41.236c-0.332-11.646-2.176-26.631-2.336-29.184
	c-0.387-6.189-15.088-15.863-20.504-20.506c-5.416-4.641-12.767-16.248-15.474-25.145c-2.709-8.898-8.125-15.09-8.125-25.92
	c0-10.834-6.578-20.506-2.709-33.659s13.541-30.951,27.081-36.753c13.541-5.805,19.344-9.674,23.213-10.059
	c3.869-0.388,9.285-1.161,13.928,3.094c4.643,4.257,15.088,12.38,23.6,13.156c8.512,0.772,29.016,4.642,30.563,5.802
	c1.549,1.16,5.996,16.657,8.316,15.884c2.322-0.775,3.193-8.581,8.223-9.357c5.029-0.772,12.09,3.917,12.865,8.947
	c0.771,5.029-2.494,21.748-6.75,25.036c-4.256,3.29-1.689,13.057-5.559,13.833c-3.867,0.773-3.088-1.233-4.289,0.455
	c-0.158,0.223-3.908,25.285-15.707,43.468c0,0-2.322,17.797,3.094,27.275c5.416,9.477,17.604,23.018,17.217,38.494
	c-0.387,15.473-6.965,26.309-3.289,41.781c3.676,15.475,10.252,31.145,9.479,40.816s-0.967,23.762,6.771,26.873
	c7.736,3.111,24.951-13.332,22.244-46.992c-2.709-33.656,14.51-39.461,15.668-51.453c1.162-11.992-19.924-48.748-17.408-71.572
	s5.996-46.811,0.773-60.739c-5.223-13.925-17.408-39.655-19.344-56.289c-1.934-16.637-18.377-64.028-76.988-58.419
	C107.873,21.846,100.525,17.88,82.92,21.652z"/>
<path fill="#C79781" d="M83.225,72.259c-3.193,2.029-18.859,6.963-26.693,11.315c-7.834,4.353-22.552,28.025-23.211,38.88
	c-0.371,6.108-1.161,10.444-1.161,11.894c0,1.453,5.784,22.267,6.383,31.626c0.52,8.107,8.05,18.152,11.315,24.951
	c3.141,6.539,20.6,21.76,22.051,24.662c1.451,2.9,15.088,10.154,22.342,9.283c7.254-0.867,31.916-15.086,37.137-16.537
	c5.225-1.451,17.699-16.537,20.893-20.311c3.191-3.77,13.084-33.927,13.084-39.421c0,0,5.141,0.739,6.301-2.453
	c1.162-3.192,0.516-9.596,4.686-12.962c2.828-2.284,6.352-11.31,6.393-21.47c0.021-5.086-8.125-12.987-13.344-11.897
	c-6.783,1.416-6.674,10.155-8.705,9.865c-2.031-0.289-3.301-13.841-8.137-15.881c-7.158-3.021-19.451-5.718-30.949-6.772
	c-6.85-0.626-18.389-8.154-25.711-13.987L83.225,72.259z"/>
<path fill="#855144" d="M83.693,99.186c0,0-8.303,14.563-7.432,28.781c0.869,14.215,0.977,24.004,2.9,26.489
	c5.387,6.962,11.896,8.906,15.088,3.974c2.256-3.486-0.871-8.993-5.223-15.958c-4.352-6.963-4.488-22.341-3.695-26.983
	c0.795-4.642,1.955-10.716,3.115-12.175C89.607,101.853,83.693,99.186,83.693,99.186z"/>
<path fill="#F8E6E2" d="M73.65,107.947c0,0-6.674,17.488-7.254,22.234c-0.58,4.749-4.643,21.287-3.191,24.187
	c1.451,2.902,5.803,4.062,7.834,3.482s4.063-5.802,2.611-11.026c-1.451-5.221-2.902-17.989-1.451-24.37
	C73.65,116.07,75.391,109.686,73.65,107.947z"/>
<path fill="#855144" d="M169.979,110.268c-2.617,0.804-4.064,5.221-2.904,7.834c1.162,2.61,2.533,4.931,1.268,7.542
	c-1.268,2.613-1.346,7.98,0,7.328c1.346-0.655,0.766-3.554,3.086-4.715s7.254-6.095,6.965-10.447
	C178.102,113.457,173.748,109.107,169.979,110.268z"/>
<path fill="#B18078" d="M78.762,181.721c0.387-0.475,0.678-1.104,0.77-1.654c-0.029-0.002-0.064-0.008-0.094-0.014
	c-2.418-0.314-5.707,1.668-6.963,1.902c-1.258,0.23-4.16-1.588-5.707-1.877s-6.385,2.127-7.045,1.854c0,0-0.789,0.564-0.596,1.145
	c0.033,0.102,0.23,0.359,0.537,0.725c1.363,0.473,3.525,0.697,4.686,1.307c1.838,0.967,6.287,3.48,7.543,3.191
	c1.258-0.289,1.586-2.998,2.486-3.48C75.277,184.332,77.891,182.787,78.762,181.721z"/>
<path fill="#E1A8B4" d="M77.965,186.709c-2.514-0.148-4.059,0.115-5.49,0.236c-3.83,0.316-3.84-0.871-7.834-1.936
	c-1.15-0.305-4.988-2.15-5.49-2.393c-0.055,0.146-0.076,0.301-0.023,0.459c0.193,0.582,5.705,6.285,7.156,8.51
	c1.451,2.227,2.805,7.352,9.914,8.512c3.568,0.584,7.66-1.102,11.098-3.145c0.252-1.463,0.295-2.984,0.074-3.916
	C86.986,191.432,81.104,188.258,77.965,186.709z"/>
<path fill="#A36661" d="M107.463,183.947c-0.078-0.389-1.002-0.83-1.805-0.76c-4.285,0.363-13.52-0.143-14.904-0.307
	c-1.645-0.193-8.898-2.514-11.316-2.828c-0.461-0.059-0.955-0.033-1.461,0.045c-1.168,0.604-2.301,1.418-2.699,1.912
	c-0.771,0.971-4.121,2.451-3.287,3.969c0.834,1.514,2.127,1.398,3.578,2.344c1.451,0.943,7.447,3.264,7.156,5.102
	c-0.289,1.838-2.223,4.451-1.16,5.611c0.16,0.172,0.516,0.234,1.01,0.209c5.385-1.963,10.473-6.316,11.854-7.559
	C96.363,189.943,107.736,185.301,107.463,183.947z"/>
<path fill="#855144" d="M147.08,194.104c-5.197,6.078-30.199,3.496-34.578,6.107c-4.377,2.611-11.578,13.057-15.061,16.537
	c-3.482,3.482-11.842,6.764-11.842,6.764l0,0c3.135,1.043,6.244,1.65,8.65,1.359c7.254-0.867,31.916-15.086,37.137-16.537
	c3.725-1.035,11.129-8.992,16.232-14.848C147.459,193.664,147.283,193.869,147.08,194.104z"/>
<path fill="#855144" d="M154.6,154.079c5.803-14.507,7.666-26.693,4.557-46.132c-0.109-0.691-0.314-1.593-0.457-2.234
	c-0.434-1.371-0.818-2.737-1.357-4.333c-1.434-3.453-1.738-6.625-5.527-7.882c-3.469-1.385-7.992-2.691-12.984-3.79
	c-0.779,1.756,2.953,2.385,2.133,6.136c-0.871,3.976-2.432,2.189-2.32,5.392c0.109,3.206-3.66,36.014-4.732,40.656
	c-1.072,4.641-22.25,20.322-21.381,24.082s0.58,4.061,0.58,6.092s1.25,6.092,5.121,6.092
	C122.104,178.158,148.797,168.586,154.6,154.079z"/>
<path fill="#F8E6E2" d="M67.299,161.176c-1.998,0.424-6.416-3.615-7.865-6.808c-1.451-3.191,2.609-18.567,4.641-24.187
	c2.033-5.617,4.354-18.463,2.613-22.234c-1.742-3.773-9.285-6.71-9.285-6.71s-9.033-1.888-14.194-2.231
	c-5.179,8.21-9.537,17.654-9.888,23.448c-0.371,6.108-1.161,10.444-1.161,11.894c0,1.453,5.784,22.267,6.383,31.626
	c0.002,0.051,0.01,0.102,0.014,0.154c1.063,3.633,1.991,6.713,2.595,8.781c2.63,5.76,6.575,11.58,8.706,16.016
	c1.545,3.213,6.545,8.523,11.402,13.434l0,0c2.408-1.07-1.537-22.428-1.537-22.428C61.754,179.318,69.297,160.752,67.299,161.176z"
	/>
<path fill="#855144" d="M49.164,90.604c5.481-2.622,14.821-6.741,21.584-7.901c8.902-1.525,24.49-4.389,31.33-5.071
	c-2.232-1.545-4.646-3.712-7.359-5.373l-3.676-0.784h-7.35c-2.992,0.77-19.328,7.747-27.162,12.099
	C54.436,84.738,51.844,87.289,49.164,90.604z"/>
<path fill="#F8E6E2" d="M113.154,170.316c0.014-0.939-0.066-1.926-0.625-4.342c-0.869-3.76,20.309-19.441,21.381-24.082
	c1.072-4.642,4.842-37.45,4.732-40.656c-2.322,0.545-7.836,11.352-13.637,18.314c-5.803,6.963-17.699,11.897-21.182,13.42
	c-3.48,1.523-6.383,5.44-6.383,5.44c2.611,4.642,3.482,14.218,3.482,22.765c0,8.551,12.186,10.891,12.186,10.891
	C112.939,171.643,112.895,171.068,113.154,170.316z"/>
<path fill="#694E45" d="M40.398,103.549c0,0,15.264,2.077,17.874,2.945c2.611,0.871,4.152-1.765,2.645-4.709
	c-1.322-2.585-15.501-6.274-15.633-6.069c-0.059,0.093-1.221,1.632-2.29,3.391C41.698,101.237,40.398,103.549,40.398,103.549z"/>
<path fill="#694E45" d="M86.127,95.845c-1.225,1.61-3.482,3.909-2.611,5.392c0.869,1.487,5.512,2.647,7.254,1.776
	c1.74-0.871,14.215-9.573,20.6-9.573c6.383,0,20.6,4.071,22.34,4.937c1.742,0.866-8.248-8.693-13.346-10.45
	c-5.1-1.756-13.057-2.268-17.119-1.107C99.184,87.983,87.951,93.442,86.127,95.845z"/>
</svg>
