<?xml version="1.0" encoding="utf-8"?>
<!-- Generator: Adobe Illustrator 16.0.0, SVG Export Plug-In . SVG Version: 6.00 Build 0)  -->
<!DOCTYPE svg PUBLIC "-//W3C//DTD SVG 1.1//EN" "http://www.w3.org/Graphics/SVG/1.1/DTD/svg11.dtd">
<svg version="1.1" id="Layer_1" xmlns="http://www.w3.org/2000/svg" xmlns:xlink="http://www.w3.org/1999/xlink" x="0px" y="0px"
	 width="62.291px" height="62.291px" viewBox="0 0 62.291 62.291" enable-background="new 0 0 62.291 62.291" xml:space="preserve">
<circle fill="#FFFFFF" cx="31.146" cy="31.146" r="31.146"/>
<g>
	<path fill="#DBB028" d="M38.363,9.945c-0.959-0.672-1.604-1.314-1.936-1.927c-0.331-0.613-0.384-1.247-0.158-1.902
		c0.255-0.741,0.762-1.252,1.521-1.533c0.759-0.281,1.612-0.258,2.561,0.068c0.646,0.223,1.18,0.546,1.601,0.97
		c0.42,0.424,0.693,0.904,0.82,1.439s0.101,1.063-0.079,1.585l-1.247-0.429c0.196-0.571,0.169-1.082-0.08-1.533
		c-0.25-0.451-0.704-0.79-1.363-1.017c-0.612-0.211-1.136-0.24-1.571-0.088c-0.436,0.152-0.735,0.467-0.9,0.946
		c-0.133,0.384-0.082,0.765,0.152,1.143s0.704,0.811,1.411,1.3c0.706,0.489,1.234,0.942,1.585,1.359s0.571,0.839,0.663,1.266
		s0.056,0.879-0.109,1.358c-0.263,0.763-0.77,1.271-1.522,1.525s-1.627,0.21-2.622-0.132c-0.646-0.222-1.207-0.554-1.682-0.995
		c-0.476-0.44-0.79-0.928-0.946-1.464c-0.155-0.535-0.139-1.077,0.05-1.624l1.247,0.429c-0.195,0.569-0.14,1.09,0.167,1.564
		c0.307,0.475,0.811,0.833,1.514,1.074c0.654,0.225,1.203,0.265,1.644,0.117c0.441-0.147,0.741-0.451,0.899-0.912
		c0.159-0.461,0.12-0.873-0.116-1.237C39.629,10.934,39.128,10.483,38.363,9.945z"/>
	<path fill="#DBB028" d="M43.106,17.936c-0.756-0.66-1.153-1.444-1.193-2.354c-0.04-0.91,0.303-1.78,1.028-2.61l0.153-0.175
		c0.482-0.552,1.019-0.954,1.609-1.203c0.59-0.25,1.183-0.332,1.776-0.246c0.593,0.086,1.111,0.322,1.554,0.709
		c0.725,0.632,1.079,1.363,1.063,2.191c-0.016,0.828-0.411,1.686-1.188,2.575l-0.346,0.396l-3.773-3.297
		c-0.466,0.561-0.693,1.145-0.682,1.751s0.255,1.117,0.729,1.53c0.336,0.294,0.681,0.474,1.034,0.541
		c0.354,0.066,0.717,0.063,1.089-0.011l0.187,0.961C45.053,19.005,44.039,18.751,43.106,17.936z M47.351,12.839
		c-0.384-0.336-0.829-0.478-1.334-0.426c-0.506,0.052-1.009,0.303-1.512,0.753l2.79,2.438l0.063-0.072
		c0.396-0.508,0.593-0.997,0.592-1.467S47.749,13.187,47.351,12.839z"/>
	<path fill="#DBB028" d="M47.038,23.076c-0.472-0.885-0.564-1.76-0.279-2.624c0.286-0.865,0.915-1.557,1.889-2.075l0.205-0.109
		c0.647-0.345,1.292-0.529,1.933-0.553c0.641-0.023,1.223,0.11,1.747,0.402c0.524,0.291,0.925,0.696,1.201,1.215
		c0.452,0.849,0.523,1.657,0.216,2.426c-0.309,0.769-0.984,1.43-2.026,1.984l-0.464,0.248l-2.355-4.423
		c-0.636,0.358-1.055,0.823-1.26,1.395c-0.204,0.571-0.158,1.134,0.137,1.689c0.21,0.394,0.469,0.685,0.775,0.873
		c0.307,0.188,0.646,0.313,1.021,0.377l-0.168,0.965C48.478,24.767,47.62,24.17,47.038,23.076z M52.816,19.82
		c-0.24-0.45-0.605-0.741-1.096-0.872c-0.491-0.131-1.051-0.076-1.681,0.167l1.741,3.27l0.085-0.045
		c0.55-0.334,0.907-0.721,1.074-1.16C53.105,20.74,53.064,20.287,52.816,19.82z"/>
	<path fill="#DBB028" d="M56.806,31.377l-0.814-0.101c0.541,0.639,0.735,1.413,0.585,2.321c-0.169,1.021-0.676,1.65-1.519,1.889
		c0.31,0.301,0.541,0.664,0.692,1.089s0.183,0.902,0.095,1.433c-0.266,1.601-1.248,2.273-2.947,2.02l-4.89-0.811l0.207-1.248
		l4.815,0.799c0.521,0.087,0.932,0.032,1.229-0.163s0.493-0.574,0.587-1.137c0.076-0.463,0.002-0.87-0.224-1.222
		s-0.568-0.591-1.028-0.718l-4.842-0.803l0.208-1.255l4.781,0.793c1.062,0.176,1.678-0.255,1.851-1.294
		c0.136-0.818-0.12-1.436-0.768-1.853l-5.327-0.884l0.207-1.247l7.297,1.21L56.806,31.377z"/>
	<path fill="#DBB028" d="M47.118,42.857l3.465,4.658l-0.797,1.094l-5.147-7.434c-0.723-1.097-0.789-2.05-0.198-2.86l0.157-0.182
		l0.35-0.328l0.829,0.604l-0.224,0.261c-0.252,0.346-0.379,0.667-0.38,0.962c-0.001,0.296,0.139,0.642,0.419,1.038l0.442,0.669
		l7.465,2.178l-0.813,1.115L47.118,42.857z"/>
	<path fill="#DBB028" d="M40.334,46.597l3.02,5.664l1.031-0.55l0.46,0.862l-1.031,0.55l0.356,0.67c0.373,0.7,0.475,1.34,0.305,1.922
		c-0.171,0.581-0.598,1.054-1.281,1.419c-0.257,0.137-0.531,0.239-0.82,0.307l-0.419-0.932c0.208-0.065,0.419-0.154,0.632-0.268
		c0.362-0.193,0.585-0.448,0.669-0.765c0.084-0.317,0.021-0.673-0.189-1.068l-0.368-0.69l-1.394,0.743l-0.46-0.862l1.394-0.743
		l-3.02-5.664L40.334,46.597z"/>
	<path fill="#DBB028" d="M32.87,49.826c0.381-0.657,1.04-1.071,1.978-1.241c0.776-0.141,1.407-0.022,1.896,0.354
		c0.487,0.378,0.813,1.008,0.978,1.89l0.858,4.735l-1.244,0.226l-0.853-4.701c-0.2-1.104-0.748-1.573-1.645-1.411
		c-0.951,0.173-1.52,0.642-1.705,1.406l0.96,5.294l-1.244,0.226l-1.319-7.278l1.184-0.214L32.87,49.826z"/>
	<path fill="#DBB028" d="M28.85,48.965l1.26,0.116l-0.969,10.456l-1.259-0.117L28.85,48.965z"/>
	<path fill="#DBB028" d="M25.913,48.335l1.222,0.324l-2.69,10.149l-1.222-0.323L25.913,48.335z"/>
	<path fill="#DBB028" d="M14.049,44.135c0.8-0.696,1.634-1.036,2.501-1.02c0.869,0.017,1.705,0.39,2.508,1.119
		c0.869,0.791,1.283,1.736,1.24,2.837c-0.042,1.101-0.539,2.174-1.488,3.22l-0.645,0.708c-0.621,0.685-1.291,1.176-2.008,1.473
		s-1.426,0.381-2.127,0.251c-0.701-0.129-1.348-0.462-1.938-0.998c-0.782-0.711-1.211-1.5-1.286-2.366
		c-0.075-0.865,0.2-1.72,0.823-2.563l0.977,0.888c-0.45,0.665-0.654,1.258-0.613,1.777c0.042,0.52,0.316,1.01,0.822,1.469
		c0.62,0.564,1.315,0.777,2.085,0.639c0.77-0.14,1.539-0.632,2.31-1.479l0.648-0.714c0.727-0.8,1.139-1.588,1.234-2.364
		c0.096-0.775-0.156-1.437-0.758-1.981c-0.539-0.491-1.064-0.745-1.574-0.763c-0.512-0.018-1.09,0.234-1.735,0.756L14.049,44.135z"
		/>
	<path fill="#DBB028" d="M12.93,38.65l-8.674,0.502l-0.548-1.327l10.609-0.383l0.443,1.074l-7.797,7.201l-0.545-1.32L12.93,38.65z"
		/>
	<path fill="#DBB028" d="M6.813,28.2c-0.572-0.679-0.774-1.459-0.608-2.341c0.291-1.536,1.303-2.146,3.039-1.833l4.803,0.908
		l-0.234,1.242l-4.811-0.909c-0.524-0.094-0.934-0.048-1.229,0.14c-0.295,0.188-0.489,0.53-0.583,1.027
		c-0.076,0.403-0.036,0.777,0.121,1.122c0.157,0.346,0.395,0.636,0.712,0.872l5.179,0.979l-0.234,1.242L2.647,28.7l0.235-1.242
		L6.813,28.2z"/>
	<path fill="#DBB028" d="M16.204,21.433c-0.533,0.85-1.245,1.366-2.137,1.549c-0.893,0.183-1.805-0.019-2.74-0.604l-0.196-0.123
		c-0.622-0.391-1.103-0.856-1.442-1.4c-0.339-0.544-0.514-1.116-0.521-1.716c-0.008-0.599,0.144-1.148,0.455-1.646
		c0.512-0.814,1.177-1.279,1.997-1.395c0.819-0.115,1.729,0.141,2.729,0.768l0.446,0.28l-2.662,4.246
		c0.628,0.371,1.239,0.504,1.837,0.396c0.597-0.106,1.063-0.427,1.396-0.959c0.236-0.379,0.361-0.748,0.371-1.107
		s-0.051-0.717-0.182-1.074l0.92-0.335C16.953,19.343,16.862,20.383,16.204,21.433z M10.503,18.043
		c-0.271,0.432-0.342,0.894-0.211,1.385c0.131,0.49,0.458,0.948,0.982,1.374l1.969-3.139l-0.082-0.051
		c-0.563-0.311-1.077-0.428-1.541-0.354S10.784,17.596,10.503,18.043z"/>
	<path fill="#DBB028" d="M16.935,11.419c-0.165,0.101-0.332,0.225-0.501,0.371c-0.628,0.542-0.821,1.178-0.583,1.906l3.436,3.97
		l-0.957,0.828l-4.84-5.592l0.93-0.806l0.575,0.633c-0.118-0.771,0.109-1.405,0.685-1.904c0.187-0.161,0.349-0.259,0.486-0.294
		L16.935,11.419z"/>
	<path fill="#DBB028" d="M24.153,14.751c-0.915,0.41-1.795,0.443-2.638,0.1s-1.49-1.019-1.941-2.025l-0.095-0.212
		c-0.301-0.669-0.44-1.325-0.42-1.965c0.02-0.641,0.193-1.213,0.52-1.716c0.326-0.503,0.757-0.875,1.293-1.115
		c0.878-0.394,1.689-0.41,2.436-0.05c0.746,0.36,1.359,1.079,1.842,2.156l0.216,0.48l-4.573,2.049
		c0.315,0.658,0.751,1.108,1.307,1.351s1.121,0.235,1.694-0.021c0.407-0.183,0.716-0.42,0.924-0.714
		c0.208-0.293,0.356-0.625,0.446-0.994l0.951,0.233C25.938,13.429,25.284,14.244,24.153,14.751z M21.298,8.764
		c-0.467,0.209-0.781,0.554-0.945,1.034s-0.146,1.043,0.053,1.688l3.381-1.516l-0.039-0.087c-0.297-0.571-0.658-0.955-1.085-1.15
		C22.235,8.538,21.78,8.548,21.298,8.764z"/>
	<path fill="#DBB028" d="M27.549,12.857c-0.032-0.216,0.006-0.406,0.112-0.57c0.107-0.163,0.289-0.264,0.547-0.302
		c0.257-0.038,0.462,0.005,0.616,0.13s0.248,0.295,0.28,0.511c0.03,0.208-0.01,0.391-0.122,0.55
		c-0.112,0.159-0.297,0.258-0.554,0.296s-0.46-0.003-0.609-0.124S27.58,13.064,27.549,12.857z"/>
</g>
</svg>
