<?xml version="1.0" encoding="utf-8"?>
<!-- Generator: Adobe Illustrator 16.0.0, SVG Export Plug-In . SVG Version: 6.00 Build 0)  -->
<!DOCTYPE svg PUBLIC "-//W3C//DTD SVG 1.1//EN" "http://www.w3.org/Graphics/SVG/1.1/DTD/svg11.dtd">
<svg version="1.1" id="Layer_1" xmlns="http://www.w3.org/2000/svg" xmlns:xlink="http://www.w3.org/1999/xlink" x="0px" y="0px"
	 width="62.291px" height="62.291px" viewBox="0 0 62.291 62.291" enable-background="new 0 0 62.291 62.291" xml:space="preserve">
<g>
	<path fill="#FFFFFF" d="M61.591,31.146c0,1.552-2.705,2.872-2.938,4.358c-0.24,1.525,1.923,3.615,1.456,5.053
		c-0.476,1.463-3.457,1.882-4.146,3.233c-0.697,1.364,0.711,4.022-0.184,5.253c-0.899,1.236-3.865,0.715-4.943,1.793
		s-0.558,4.042-1.793,4.941c-1.23,0.896-3.889-0.513-5.253,0.185c-1.352,0.689-1.771,3.672-3.233,4.146
		c-1.437,0.467-3.526-1.696-5.052-1.456c-1.485,0.233-2.807,2.938-4.358,2.938s-2.872-2.705-4.358-2.938
		c-1.525-0.24-3.615,1.923-5.053,1.456c-1.463-0.476-1.882-3.457-3.233-4.146c-1.364-0.697-4.023,0.711-5.253-0.185
		c-1.236-0.899-0.715-3.863-1.793-4.942c-1.079-1.078-4.043-0.557-4.942-1.793c-0.895-1.229,0.513-3.889-0.184-5.253
		c-0.689-1.351-3.672-1.771-4.146-3.233c-0.467-1.437,1.696-3.526,1.456-5.052C3.405,34.019,0.7,32.697,0.7,31.146
		s2.705-2.873,2.938-4.358c0.24-1.526-1.923-3.616-1.456-5.053c0.476-1.462,3.457-1.881,4.146-3.232
		c0.697-1.365-0.711-4.024,0.185-5.254c0.899-1.236,3.863-0.714,4.942-1.792c1.078-1.078,0.557-4.043,1.793-4.942
		c1.229-0.895,3.889,0.513,5.253-0.184c1.352-0.69,1.771-3.671,3.233-4.146c1.437-0.467,3.526,1.696,5.052,1.456
		C28.272,3.405,29.594,0.7,31.146,0.7s2.872,2.705,4.358,2.939c1.525,0.24,3.615-1.923,5.053-1.456
		c1.463,0.475,1.882,3.456,3.233,4.146c1.364,0.697,4.022-0.711,5.253,0.185c1.236,0.899,0.715,3.864,1.793,4.942
		c1.078,1.078,4.042,0.557,4.941,1.792c0.896,1.23-0.512,3.889,0.185,5.254c0.689,1.351,3.672,1.77,4.146,3.232
		c0.467,1.437-1.696,3.527-1.456,5.052C58.886,28.273,61.591,29.594,61.591,31.146z"/>
</g>
<g>
	<path fill="#DBB028" d="M38.353,12.564c-0.811-0.567-1.354-1.109-1.635-1.626c-0.279-0.517-0.323-1.052-0.133-1.605
		c0.216-0.626,0.644-1.057,1.283-1.294c0.642-0.237,1.361-0.218,2.162,0.057c0.544,0.188,0.996,0.461,1.351,0.819
		s0.585,0.763,0.692,1.215c0.106,0.451,0.084,0.897-0.067,1.337l-1.053-0.362c0.166-0.482,0.143-0.913-0.067-1.294
		c-0.211-0.38-0.595-0.667-1.15-0.858c-0.517-0.178-0.959-0.203-1.326-0.074c-0.368,0.128-0.62,0.395-0.759,0.798
		c-0.113,0.325-0.069,0.646,0.128,0.965c0.197,0.318,0.594,0.684,1.189,1.097c0.598,0.413,1.042,0.796,1.338,1.147
		c0.297,0.352,0.482,0.708,0.562,1.068c0.077,0.36,0.046,0.742-0.094,1.146c-0.221,0.644-0.648,1.072-1.284,1.287
		c-0.637,0.215-1.373,0.178-2.214-0.111c-0.544-0.188-1.018-0.468-1.418-0.839c-0.402-0.372-0.667-0.784-0.799-1.236
		c-0.132-0.451-0.117-0.909,0.042-1.371l1.053,0.362c-0.166,0.48-0.119,0.92,0.141,1.32c0.258,0.4,0.684,0.703,1.277,0.907
		c0.553,0.19,1.015,0.224,1.388,0.099c0.371-0.124,0.625-0.38,0.759-0.77c0.133-0.389,0.101-0.737-0.099-1.044
		C39.42,13.398,38.997,13.019,38.353,12.564z"/>
	<path fill="#DBB028" d="M42.354,19.308c-0.638-0.557-0.974-1.219-1.007-1.987c-0.034-0.768,0.256-1.502,0.868-2.203l0.13-0.148
		c0.405-0.466,0.859-0.805,1.358-1.015c0.497-0.21,0.997-0.28,1.498-0.208s0.938,0.272,1.311,0.599
		c0.612,0.534,0.912,1.15,0.897,1.849c-0.013,0.699-0.346,1.423-1.002,2.173l-0.292,0.334l-3.184-2.783
		c-0.395,0.473-0.587,0.966-0.576,1.478c0.01,0.512,0.216,0.942,0.614,1.292c0.283,0.248,0.576,0.4,0.874,0.456
		c0.298,0.057,0.604,0.054,0.919-0.008l0.157,0.811C43.998,20.21,43.143,19.996,42.354,19.308z M45.938,15.006
		c-0.326-0.283-0.7-0.403-1.126-0.359c-0.428,0.044-0.852,0.256-1.276,0.636l2.354,2.058l0.053-0.061
		c0.333-0.429,0.501-0.842,0.499-1.238C46.441,15.645,46.273,15.299,45.938,15.006z"/>
	<path fill="#DBB028" d="M45.672,23.646c-0.396-0.747-0.475-1.485-0.235-2.215c0.243-0.73,0.772-1.313,1.596-1.751l0.172-0.092
		c0.546-0.291,1.091-0.446,1.632-0.467c0.539-0.02,1.03,0.093,1.473,0.339c0.442,0.246,0.781,0.588,1.015,1.025
		c0.382,0.716,0.442,1.398,0.183,2.047c-0.261,0.648-0.831,1.207-1.71,1.675l-0.392,0.209l-1.988-3.733
		c-0.536,0.303-0.891,0.695-1.064,1.177c-0.171,0.482-0.133,0.957,0.117,1.425c0.176,0.333,0.396,0.578,0.654,0.737
		c0.258,0.158,0.545,0.265,0.861,0.318l-0.141,0.814C46.888,25.072,46.164,24.569,45.672,23.646z M50.55,20.898
		c-0.202-0.379-0.512-0.625-0.925-0.736c-0.414-0.111-0.888-0.064-1.418,0.141l1.47,2.759l0.071-0.038
		c0.464-0.282,0.766-0.608,0.906-0.979C50.793,21.674,50.759,21.292,50.55,20.898z"/>
	<path fill="#DBB028" d="M53.917,30.651l-0.688-0.085c0.455,0.539,0.62,1.192,0.494,1.959c-0.143,0.861-0.57,1.393-1.283,1.594
		c0.261,0.254,0.457,0.561,0.585,0.919s0.153,0.762,0.08,1.209c-0.225,1.352-1.053,1.919-2.487,1.705l-4.127-0.685l0.175-1.054
		l4.063,0.674c0.44,0.073,0.788,0.028,1.038-0.138c0.252-0.164,0.417-0.484,0.495-0.958c0.064-0.392,0.002-0.735-0.188-1.032
		c-0.189-0.296-0.48-0.498-0.868-0.604l-4.086-0.679l0.175-1.059l4.036,0.67c0.896,0.147,1.416-0.216,1.563-1.092
		c0.113-0.691-0.103-1.212-0.649-1.563l-4.496-0.746l0.176-1.053l6.157,1.021L53.917,30.651z"/>
	<path fill="#DBB028" d="M45.739,40.34l2.925,3.932l-0.673,0.923l-4.344-6.273c-0.609-0.926-0.666-1.73-0.167-2.414l0.134-0.153
		l0.294-0.277l0.7,0.51l-0.188,0.22c-0.214,0.292-0.319,0.563-0.321,0.812c0,0.251,0.117,0.542,0.354,0.877l0.373,0.564l6.3,1.838
		l-0.688,0.941L45.739,40.34z"/>
	<path fill="#DBB028" d="M40.016,43.495l2.548,4.78l0.87-0.464l0.389,0.729l-0.872,0.464l0.302,0.564
		c0.314,0.592,0.4,1.132,0.258,1.622c-0.145,0.491-0.504,0.89-1.082,1.198c-0.218,0.115-0.447,0.201-0.692,0.259l-0.353-0.787
		c0.175-0.055,0.353-0.13,0.533-0.226c0.306-0.162,0.493-0.378,0.563-0.645c0.071-0.269,0.018-0.568-0.159-0.902l-0.311-0.582
		l-1.176,0.627l-0.389-0.728l1.177-0.628l-2.55-4.779L40.016,43.495z"/>
	<path fill="#DBB028" d="M33.715,46.222c0.322-0.555,0.878-0.905,1.669-1.048c0.656-0.118,1.188-0.019,1.602,0.299
		c0.411,0.319,0.686,0.851,0.824,1.595l0.724,3.996l-1.049,0.191l-0.721-3.968c-0.168-0.932-0.63-1.328-1.387-1.191
		c-0.803,0.146-1.283,0.541-1.438,1.187l0.81,4.468l-1.051,0.191l-1.113-6.144l1-0.18L33.715,46.222z"/>
	<path fill="#DBB028" d="M30.323,45.494l1.062,0.099l-0.816,8.824l-1.063-0.099L30.323,45.494z"/>
	<path fill="#DBB028" d="M27.845,44.963l1.031,0.273l-2.271,8.565l-1.032-0.272L27.845,44.963z"/>
	<path fill="#DBB028" d="M17.831,41.418c0.676-0.588,1.38-0.874,2.11-0.86c0.735,0.015,1.44,0.329,2.117,0.944
		c0.734,0.667,1.083,1.465,1.047,2.395c-0.035,0.929-0.455,1.834-1.256,2.717l-0.545,0.598c-0.524,0.578-1.089,0.992-1.693,1.243
		c-0.605,0.25-1.203,0.321-1.795,0.212c-0.593-0.108-1.137-0.391-1.636-0.843c-0.66-0.6-1.022-1.266-1.086-1.997
		c-0.063-0.729,0.17-1.451,0.694-2.163l0.824,0.75c-0.38,0.561-0.552,1.062-0.518,1.5c0.037,0.438,0.268,0.852,0.695,1.239
		c0.522,0.477,1.109,0.656,1.76,0.539c0.648-0.117,1.298-0.533,1.948-1.249l0.547-0.603c0.614-0.674,0.961-1.339,1.041-1.994
		c0.083-0.654-0.131-1.213-0.638-1.673c-0.455-0.415-0.898-0.629-1.328-0.644c-0.434-0.016-0.922,0.197-1.466,0.639L17.831,41.418z"
		/>
	<path fill="#DBB028" d="M16.888,36.789l-7.322,0.424l-0.462-1.12l8.954-0.323l0.374,0.906l-6.579,6.078l-0.461-1.114L16.888,36.789
		z"/>
	<path fill="#DBB028" d="M11.725,27.97c-0.482-0.573-0.654-1.231-0.514-1.976c0.245-1.296,1.1-1.812,2.564-1.547l4.054,0.767
		l-0.197,1.048l-4.06-0.768c-0.444-0.079-0.79-0.04-1.038,0.118c-0.249,0.159-0.413,0.448-0.492,0.867
		c-0.065,0.34-0.03,0.656,0.103,0.947c0.132,0.292,0.333,0.537,0.6,0.736l4.372,0.827l-0.199,1.048L8.21,28.393l0.197-1.049
		L11.725,27.97z"/>
	<path fill="#DBB028" d="M19.651,22.259c-0.452,0.717-1.051,1.153-1.805,1.307c-0.753,0.154-1.522-0.016-2.312-0.51l-0.166-0.104
		c-0.525-0.329-0.931-0.723-1.218-1.181c-0.285-0.459-0.433-0.942-0.44-1.449c-0.006-0.505,0.121-0.969,0.384-1.39
		c0.434-0.687,0.994-1.08,1.686-1.176c0.692-0.098,1.46,0.118,2.305,0.647l0.376,0.236l-2.246,3.583
		c0.53,0.313,1.046,0.425,1.55,0.334c0.503-0.09,0.896-0.36,1.179-0.809c0.199-0.32,0.306-0.632,0.313-0.935
		c0.01-0.303-0.042-0.605-0.153-0.906l0.777-0.283C20.281,20.495,20.207,21.373,19.651,22.259z M14.839,19.398
		c-0.229,0.365-0.289,0.755-0.178,1.169c0.11,0.413,0.386,0.8,0.828,1.16l1.661-2.649l-0.067-0.043
		c-0.477-0.262-0.91-0.361-1.301-0.298C15.391,18.8,15.076,19.021,14.839,19.398z"/>
	<path fill="#DBB028" d="M20.267,13.808c-0.139,0.085-0.279,0.19-0.422,0.313c-0.53,0.458-0.694,0.995-0.493,1.608l2.9,3.351
		l-0.808,0.698l-4.085-4.719l0.784-0.68l0.485,0.534c-0.1-0.65,0.092-1.186,0.578-1.606c0.157-0.136,0.294-0.218,0.411-0.249
		L20.267,13.808z"/>
	<path fill="#DBB028" d="M26.358,16.62c-0.771,0.347-1.515,0.375-2.226,0.084c-0.711-0.291-1.258-0.86-1.638-1.709l-0.08-0.179
		c-0.255-0.565-0.371-1.118-0.355-1.659c0.017-0.541,0.163-1.024,0.439-1.448c0.275-0.425,0.64-0.739,1.091-0.941
		c0.74-0.332,1.426-0.346,2.056-0.042c0.629,0.304,1.146,0.91,1.554,1.819l0.183,0.405l-3.859,1.729
		c0.267,0.555,0.634,0.936,1.102,1.141c0.47,0.205,0.947,0.198,1.432-0.019c0.344-0.154,0.603-0.355,0.778-0.603
		c0.176-0.247,0.302-0.527,0.377-0.838l0.804,0.196C27.865,15.504,27.313,16.192,26.358,16.62z M23.95,11.567
		c-0.396,0.177-0.66,0.468-0.799,0.873c-0.139,0.406-0.123,0.881,0.046,1.425l2.853-1.279l-0.033-0.074
		c-0.25-0.482-0.556-0.806-0.915-0.971C24.741,11.376,24.355,11.385,23.95,11.567z"/>
	<path fill="#DBB028" d="M29.225,15.021c-0.027-0.183,0.006-0.343,0.095-0.481c0.092-0.138,0.243-0.223,0.461-0.255
		c0.218-0.032,0.391,0.005,0.521,0.11s0.211,0.249,0.236,0.431c0.025,0.175-0.008,0.33-0.103,0.464s-0.25,0.218-0.468,0.25
		c-0.216,0.032-0.388-0.003-0.514-0.104C29.327,15.334,29.252,15.196,29.225,15.021z"/>
</g>
</svg>
