<?xml version="1.0" encoding="utf-8"?>
<!-- Generator: Adobe Illustrator 16.0.0, SVG Export Plug-In . SVG Version: 6.00 Build 0)  -->
<!DOCTYPE svg PUBLIC "-//W3C//DTD SVG 1.1//EN" "http://www.w3.org/Graphics/SVG/1.1/DTD/svg11.dtd">
<svg version="1.1" id="Layer_1" xmlns="http://www.w3.org/2000/svg" xmlns:xlink="http://www.w3.org/1999/xlink" x="0px" y="0px"
	 width="62.291px" height="62.291px" viewBox="0 0 62.291 62.291" enable-background="new 0 0 62.291 62.291" xml:space="preserve">
<circle fill="#FFFFFF" cx="31.146" cy="31.146" r="31.146"/>
<g>
	<path fill="#DBB028" d="M38.847,11.289c-0.865-0.606-1.447-1.186-1.746-1.738s-0.346-1.124-0.143-1.715
		c0.23-0.668,0.688-1.129,1.371-1.382C39.015,6.2,39.784,6.22,40.64,6.514c0.582,0.201,1.064,0.492,1.443,0.875
		c0.379,0.382,0.625,0.815,0.74,1.298c0.113,0.482,0.09,0.959-0.072,1.429l-1.125-0.387c0.178-0.515,0.152-0.976-0.072-1.382
		s-0.635-0.713-1.229-0.917c-0.553-0.19-1.025-0.217-1.418-0.079c-0.393,0.137-0.662,0.421-0.811,0.853
		c-0.121,0.347-0.074,0.69,0.137,1.031s0.635,0.731,1.271,1.172c0.639,0.441,1.113,0.85,1.43,1.226s0.516,0.757,0.6,1.142
		c0.082,0.385,0.049,0.793-0.1,1.225c-0.236,0.688-0.693,1.146-1.373,1.375s-1.467,0.19-2.365-0.119
		c-0.582-0.2-1.088-0.5-1.516-0.897c-0.43-0.397-0.713-0.837-0.854-1.32c-0.141-0.482-0.125-0.971,0.045-1.465l1.125,0.387
		c-0.178,0.513-0.127,0.983,0.15,1.411c0.275,0.428,0.73,0.75,1.365,0.969c0.59,0.203,1.084,0.239,1.482,0.105
		c0.396-0.132,0.668-0.406,0.811-0.822s0.107-0.788-0.105-1.116C39.987,12.18,39.536,11.774,38.847,11.289z"/>
	<path fill="#DBB028" d="M43.124,18.495c-0.682-0.595-1.041-1.303-1.076-2.123c-0.037-0.821,0.273-1.605,0.928-2.354l0.139-0.158
		c0.434-0.498,0.918-0.86,1.451-1.085c0.531-0.225,1.066-0.299,1.602-0.222s1.002,0.291,1.4,0.64
		c0.654,0.57,0.975,1.229,0.959,1.976c-0.014,0.747-0.369,1.521-1.07,2.322l-0.313,0.357l-3.402-2.974
		c-0.422,0.506-0.627,1.033-0.615,1.58c0.01,0.547,0.23,1.007,0.656,1.38c0.303,0.265,0.615,0.428,0.934,0.488
		s0.646,0.057,0.982-0.009l0.168,0.867C44.88,19.459,43.966,19.23,43.124,18.495z M46.952,13.898
		c-0.348-0.303-0.748-0.431-1.203-0.384c-0.457,0.047-0.91,0.273-1.363,0.68l2.516,2.199l0.057-0.065
		c0.355-0.458,0.535-0.899,0.533-1.323C47.491,14.581,47.312,14.212,46.952,13.898z"/>
	<path fill="#DBB028" d="M46.669,23.131c-0.424-0.798-0.508-1.587-0.252-2.367c0.26-0.78,0.826-1.404,1.705-1.872l0.184-0.098
		c0.584-0.311,1.166-0.477,1.744-0.499c0.576-0.021,1.102,0.1,1.574,0.363c0.473,0.262,0.834,0.628,1.084,1.096
		c0.408,0.766,0.473,1.495,0.195,2.188c-0.279,0.693-0.889,1.289-1.828,1.79l-0.418,0.224l-2.125-3.989
		c-0.572,0.323-0.951,0.743-1.137,1.258c-0.184,0.515-0.143,1.022,0.125,1.523c0.188,0.355,0.422,0.618,0.699,0.788
		c0.275,0.169,0.582,0.283,0.92,0.34l-0.15,0.87C47.968,24.656,47.194,24.118,46.669,23.131z M51.882,20.195
		c-0.217-0.406-0.547-0.668-0.988-0.787c-0.443-0.118-0.949-0.068-1.516,0.151l1.57,2.949l0.076-0.041
		c0.496-0.301,0.818-0.65,0.969-1.046C52.142,21.024,52.104,20.616,51.882,20.195z"/>
	<path fill="#DBB028" d="M55.479,30.618l-0.734-0.091c0.486,0.576,0.662,1.274,0.527,2.093c-0.152,0.92-0.609,1.488-1.371,1.703
		c0.279,0.271,0.488,0.599,0.625,0.981c0.137,0.384,0.164,0.814,0.086,1.292c-0.24,1.444-1.125,2.051-2.658,1.822l-4.41-0.731
		l0.188-1.126l4.342,0.721c0.471,0.078,0.842,0.029,1.109-0.147c0.27-0.176,0.445-0.518,0.529-1.024
		c0.068-0.418,0.002-0.785-0.201-1.103c-0.203-0.316-0.514-0.532-0.928-0.646l-4.367-0.725l0.188-1.132l4.313,0.716
		c0.957,0.158,1.514-0.23,1.67-1.167c0.121-0.738-0.109-1.295-0.693-1.671l-4.805-0.797l0.188-1.125l6.58,1.091L55.479,30.618z"/>
	<path fill="#DBB028" d="M46.741,40.971l3.125,4.201l-0.719,0.986l-4.643-6.704c-0.65-0.989-0.711-1.849-0.178-2.579l0.143-0.164
		l0.314-0.296l0.748,0.544l-0.201,0.235c-0.229,0.312-0.342,0.602-0.344,0.867c0,0.268,0.125,0.579,0.379,0.937l0.398,0.604
		l6.732,1.964l-0.734,1.006L46.741,40.971z"/>
	<path fill="#DBB028" d="M40.624,44.343l2.723,5.108l0.93-0.496l0.416,0.778l-0.932,0.496l0.322,0.604
		c0.336,0.632,0.428,1.209,0.275,1.733c-0.154,0.524-0.539,0.95-1.156,1.28c-0.232,0.123-0.479,0.215-0.74,0.276l-0.377-0.841
		c0.188-0.059,0.377-0.139,0.57-0.241c0.326-0.174,0.527-0.404,0.602-0.689c0.076-0.286,0.02-0.606-0.17-0.964l-0.332-0.622
		l-1.256,0.67l-0.416-0.777l1.258-0.671l-2.725-5.107L40.624,44.343z"/>
	<path fill="#DBB028" d="M33.892,47.256c0.344-0.593,0.938-0.967,1.783-1.119c0.701-0.127,1.27-0.021,1.711,0.319
		c0.439,0.341,0.732,0.909,0.881,1.704l0.773,4.271l-1.121,0.204l-0.77-4.24c-0.18-0.995-0.674-1.419-1.482-1.272
		c-0.857,0.155-1.371,0.578-1.537,1.268l0.865,4.774l-1.123,0.204l-1.189-6.564l1.068-0.192L33.892,47.256z"/>
	<path fill="#DBB028" d="M30.267,46.479l1.135,0.105l-0.873,9.43l-1.135-0.105L30.267,46.479z"/>
	<path fill="#DBB028" d="M27.618,45.911l1.102,0.292l-2.426,9.153l-1.104-0.291L27.618,45.911z"/>
	<path fill="#DBB028" d="M16.917,42.123c0.723-0.628,1.475-0.935,2.256-0.92c0.785,0.016,1.539,0.352,2.262,1.01
		c0.785,0.713,1.158,1.565,1.119,2.559c-0.037,0.992-0.486,1.96-1.342,2.903l-0.582,0.639c-0.561,0.617-1.164,1.061-1.811,1.328
		s-1.285,0.344-1.918,0.227c-0.633-0.116-1.215-0.417-1.748-0.9c-0.705-0.641-1.092-1.353-1.16-2.134
		c-0.066-0.78,0.182-1.551,0.742-2.312l0.881,0.801c-0.406,0.6-0.59,1.135-0.553,1.604c0.039,0.468,0.285,0.91,0.742,1.324
		c0.559,0.509,1.186,0.701,1.881,0.576c0.693-0.126,1.387-0.57,2.082-1.335l0.584-0.644c0.656-0.721,1.027-1.432,1.113-2.132
		c0.088-0.699-0.141-1.296-0.682-1.787c-0.486-0.443-0.961-0.672-1.42-0.688c-0.463-0.017-0.984,0.211-1.566,0.682L16.917,42.123z"
		/>
	<path fill="#DBB028" d="M15.909,37.177l-7.824,0.452l-0.494-1.196l9.568-0.346l0.4,0.969l-7.031,6.495l-0.492-1.191L15.909,37.177z
		"/>
	<path fill="#DBB028" d="M10.392,27.752c-0.516-0.612-0.699-1.316-0.549-2.111c0.262-1.385,1.176-1.936,2.74-1.653l4.332,0.819
		l-0.211,1.121l-4.338-0.82c-0.475-0.084-0.844-0.043-1.109,0.126c-0.266,0.17-0.441,0.479-0.525,0.927
		c-0.07,0.364-0.033,0.701,0.109,1.012c0.141,0.312,0.355,0.574,0.641,0.787l4.672,0.884l-0.213,1.12l-9.305-1.759l0.211-1.121
		L10.392,27.752z"/>
	<path fill="#DBB028" d="M18.862,21.649c-0.482,0.766-1.123,1.232-1.928,1.397s-1.627-0.017-2.471-0.545l-0.178-0.111
		c-0.561-0.352-0.994-0.772-1.301-1.263c-0.305-0.491-0.463-1.007-0.471-1.548c-0.006-0.54,0.129-1.036,0.41-1.485
		c0.463-0.734,1.063-1.154,1.801-1.257c0.74-0.104,1.561,0.126,2.463,0.692l0.402,0.252l-2.4,3.829
		c0.566,0.334,1.117,0.454,1.656,0.357c0.537-0.096,0.957-0.385,1.26-0.865c0.213-0.342,0.326-0.675,0.334-0.999
		c0.01-0.324-0.045-0.646-0.164-0.968l0.83-0.302C19.536,19.764,19.456,20.702,18.862,21.649z M13.72,18.592
		c-0.244,0.39-0.309,0.807-0.189,1.25c0.117,0.442,0.412,0.855,0.885,1.239l1.775-2.831l-0.072-0.046
		c-0.51-0.28-0.973-0.386-1.391-0.319S13.974,18.188,13.72,18.592z"/>
	<path fill="#DBB028" d="M19.521,12.619c-0.148,0.091-0.299,0.203-0.451,0.334c-0.566,0.489-0.742,1.063-0.527,1.719l3.1,3.58
		l-0.863,0.747l-4.365-5.043l0.838-0.727l0.52,0.57c-0.107-0.695,0.098-1.267,0.617-1.717c0.168-0.145,0.314-0.233,0.439-0.266
		L19.521,12.619z"/>
	<path fill="#DBB028" d="M26.03,15.623c-0.824,0.37-1.619,0.4-2.379,0.09s-1.344-0.919-1.75-1.827l-0.086-0.191
		c-0.271-0.604-0.396-1.195-0.379-1.772c0.018-0.578,0.174-1.094,0.469-1.548s0.684-0.79,1.166-1.006
		c0.791-0.355,1.523-0.37,2.197-0.045c0.672,0.325,1.225,0.973,1.66,1.944l0.195,0.433l-4.125,1.848
		c0.285,0.593,0.678,1,1.178,1.219c0.502,0.219,1.012,0.212,1.529-0.02c0.367-0.165,0.645-0.379,0.832-0.644
		c0.188-0.264,0.322-0.563,0.402-0.896l0.859,0.21C27.64,14.431,27.05,15.166,26.03,15.623z M23.456,10.224
		c-0.422,0.188-0.705,0.5-0.854,0.933c-0.148,0.434-0.131,0.941,0.049,1.523l3.049-1.367l-0.035-0.079
		c-0.268-0.515-0.594-0.861-0.979-1.038C24.302,10.02,23.89,10.029,23.456,10.224z"/>
	<path fill="#DBB028" d="M29.093,13.915c-0.029-0.195,0.006-0.367,0.102-0.514c0.098-0.147,0.26-0.238,0.492-0.272
		s0.418,0.005,0.557,0.117s0.225,0.266,0.252,0.461c0.027,0.187-0.008,0.353-0.109,0.496s-0.268,0.233-0.5,0.268
		c-0.23,0.034-0.414-0.003-0.549-0.112S29.122,14.102,29.093,13.915z"/>
</g>
</svg>
