<?xml version="1.0" encoding="utf-8"?>
<!-- Generator: Adobe Illustrator 16.0.0, SVG Export Plug-In . SVG Version: 6.00 Build 0)  -->
<!DOCTYPE svg PUBLIC "-//W3C//DTD SVG 1.1//EN" "http://www.w3.org/Graphics/SVG/1.1/DTD/svg11.dtd">
<svg version="1.1" id="Layer_1" xmlns="http://www.w3.org/2000/svg" xmlns:xlink="http://www.w3.org/1999/xlink" x="0px" y="0px"
	 width="24px" height="24px" viewBox="0 0 24 24" enable-background="new 0 0 24 24" xml:space="preserve">
<g>
	<path fill-rule="evenodd" clip-rule="evenodd" fill="#2740DB" d="M7.508,16.032c-2.449-0.877-3.45-2.025-3.488-3.947
		c-0.021-1.02,0.307-1.917,0.97-2.69c0.651-0.758,1.496-1.183,2.479-1.382C6.283,7.778,5.32,7.216,4.674,6.205
		C3.842,4.904,3.763,3.524,4.476,2.162c0.74-1.409,1.967-2.131,3.554-2.146c2.656-0.026,5.313-0.036,7.968,0.002
		c2.053,0.03,3.646,1.424,3.962,3.363c0.303,1.858-0.762,3.7-2.534,4.367c-0.278,0.104-0.571,0.167-0.938,0.272
		c1.228,0.224,2.192,0.781,2.853,1.785c0.658,1,0.828,2.098,0.523,3.25c-0.473,1.787-2.08,2.978-3.938,2.949
		c-1.893-0.028-3.398-1.313-3.916-3.297c0,0.126,0,0.253,0,0.379c0,2.305,0.011,4.61-0.003,6.913
		c-0.014,2.13-1.567,3.805-3.673,3.992c-2.05,0.182-3.901-1.254-4.269-3.31c-0.353-1.981,0.915-3.987,2.86-4.519
		C7.1,16.114,7.278,16.083,7.508,16.032z M12.023,11.333c0.419-1.737,1.493-2.823,3.301-3.285c-1.159,0-2.227,0-3.301,0
		C12.023,9.164,12.023,10.249,12.023,11.333z"/>
</g>
</svg>
