<?xml version="1.0" encoding="utf-8"?>
<!-- Generator: Adobe Illustrator 16.0.0, SVG Export Plug-In . SVG Version: 6.00 Build 0)  -->
<!DOCTYPE svg PUBLIC "-//W3C//DTD SVG 1.1//EN" "http://www.w3.org/Graphics/SVG/1.1/DTD/svg11.dtd">
<svg version="1.1" id="Layer_1" xmlns="http://www.w3.org/2000/svg" xmlns:xlink="http://www.w3.org/1999/xlink" x="0px" y="0px"
	 width="24px" height="24px" viewBox="0 0 24 24" enable-background="new 0 0 24 24" xml:space="preserve">
<path fill="#2740DB" d="M12,0C5.374,0,0,5.373,0,12c0,5.302,3.438,9.8,8.207,11.387C8.806,23.498,9,23.126,9,22.811v-2.234
	c-3.338,0.726-4.033-1.416-4.033-1.416c-0.546-1.387-1.333-1.756-1.333-1.756c-1.089-0.745,0.083-0.729,0.083-0.729
	c1.205,0.084,1.839,1.237,1.839,1.237c1.07,1.834,2.807,1.304,3.492,0.997c0.107-0.775,0.418-1.306,0.762-1.604
	C7.145,17,4.343,15.971,4.343,11.374c0-1.311,0.469-2.381,1.236-3.221C5.455,7.85,5.044,6.629,5.696,4.977
	c0,0,1.008-0.322,3.301,1.23C9.954,5.941,10.98,5.808,12,5.803c1.02,0.005,2.047,0.138,3.006,0.404
	c2.291-1.552,3.297-1.23,3.297-1.23c0.653,1.653,0.242,2.874,0.118,3.176c0.771,0.84,1.235,1.911,1.235,3.221
	c0,4.608-2.807,5.624-5.479,5.921C14.607,17.667,15,18.396,15,19.518v3.293c0,0.318,0.191,0.693,0.801,0.575
	C20.566,21.797,24,17.3,24,12C24,5.373,18.627,0,12,0z"/>
</svg>
