<?xml version="1.0" encoding="utf-8"?>
<!-- Generator: Adobe Illustrator 16.0.0, SVG Export Plug-In . SVG Version: 6.00 Build 0)  -->
<!DOCTYPE svg PUBLIC "-//W3C//DTD SVG 1.1//EN" "http://www.w3.org/Graphics/SVG/1.1/DTD/svg11.dtd">
<svg version="1.1" xmlns="http://www.w3.org/2000/svg" xmlns:xlink="http://www.w3.org/1999/xlink" x="0px" y="0px" width="500px"
	 height="500px" viewBox="0 0 500 500" enable-background="new 0 0 500 500" xml:space="preserve">
<g id="hola">
	<path id="h" fill="#DBB028" d="M131.529,17.605v112.152h-17.85V80.316H57.13v49.441H39.438V17.605H57.13V64.52h56.55V17.605
		H131.529z"/>
	<path id="o" fill="#DBB028" d="M203.401,243.49c-8.004,0-15.297-1.604-21.877-4.817c-6.583-3.212-12.242-7.477-16.981-12.795
		c-4.739-5.316-8.399-11.398-10.978-18.245c-2.582-6.845-3.87-13.847-3.87-21.009c0-7.476,1.367-14.636,4.107-21.483
		c2.737-6.844,6.501-12.898,11.294-18.166c4.791-5.264,10.478-9.45,17.06-12.558c6.58-3.105,13.767-4.66,21.562-4.66
		c8.002,0,15.295,1.659,21.877,4.976c6.58,3.317,12.215,7.661,16.902,13.032c4.685,5.371,8.317,11.452,10.9,18.245
		c2.578,6.792,3.869,13.718,3.869,20.772c0,7.479-1.342,14.639-4.027,21.482c-2.686,6.847-6.453,12.874-11.294,18.086
		c-4.846,5.213-10.56,9.375-17.14,12.479C218.222,241.938,211.087,243.49,203.401,243.49z M167.702,186.624
		c0,5.268,0.842,10.373,2.527,15.322c1.684,4.951,4.08,9.32,7.188,13.111c3.105,3.791,6.871,6.818,11.294,9.082
		c4.423,2.266,9.372,3.396,14.849,3.396c5.687,0,10.714-1.186,15.085-3.555c4.369-2.369,8.081-5.501,11.137-9.398
		c3.053-3.895,5.37-8.266,6.95-13.111c1.579-4.842,2.369-9.793,2.369-14.848c0-5.371-0.844-10.504-2.527-15.401
		c-1.686-4.896-4.082-9.213-7.188-12.953c-3.107-3.737-6.847-6.738-11.215-9.004c-4.371-2.263-9.241-3.396-14.611-3.396
		c-5.687,0-10.742,1.185-15.165,3.554c-4.423,2.369-8.162,5.45-11.215,9.241c-3.055,3.791-5.397,8.135-7.029,13.032
		C168.516,176.593,167.702,181.569,167.702,186.624z"/>
	<path id="l" fill="#DBB028" d="M275.59,355.643V243.49h17.691v96.514h60.184v15.639H275.59z"/>
	<path id="a" fill="#DBB028" d="M400.852,355.643h15.48l44.23,112.152h-18.641l-11.846-30.486h-43.283l-11.688,30.486h-18.799
		L400.852,355.643z M426.6,424.197l-18.008-48.178l-18.639,48.178H426.6z"/>
</g>
</svg>
