<?xml version="1.0" encoding="utf-8"?>
<!-- Generator: Adobe Illustrator 16.0.0, SVG Export Plug-In . SVG Version: 6.00 Build 0)  -->
<!DOCTYPE svg PUBLIC "-//W3C//DTD SVG 1.1//EN" "http://www.w3.org/Graphics/SVG/1.1/DTD/svg11.dtd">
<svg version="1.1" id="Layer_1" xmlns="http://www.w3.org/2000/svg" xmlns:xlink="http://www.w3.org/1999/xlink" x="0px" y="0px"
	 width="24px" height="24px" viewBox="0 0 24 24" enable-background="new 0 0 24 24" xml:space="preserve">
<g>
	<g transform="translate(-176.000000, -1017.000000)">
		<path fill="#2740DB" d="M176.198,1033.513c0-2.875,2.331-5.206,5.206-5.206h0.347c0.383,0,0.694,0.31,0.694,0.694
			c0,0.383-0.311,0.694-0.694,0.694h-0.347c-2.109,0-3.818,1.709-3.818,3.818c0,1.779,1.219,3.275,2.868,3.699l-0.339-0.566
			c-0.198-0.328-0.091-0.754,0.238-0.951s0.755-0.092,0.953,0.236l1.042,1.738c0.178,0.297,0.109,0.682-0.163,0.898l-1.735,1.389
			c-0.299,0.238-0.736,0.191-0.976-0.109c-0.24-0.299-0.19-0.736,0.108-0.975l0.426-0.342
			C177.812,1037.921,176.198,1035.905,176.198,1033.513z M196.416,1029.847c0.3,0.24,0.348,0.676,0.108,0.977
			c-0.239,0.299-0.676,0.348-0.976,0.107l-1.735-1.389c-0.271-0.217-0.342-0.601-0.162-0.898l1.041-1.735
			c0.197-0.329,0.624-0.436,0.953-0.238c0.329,0.197,0.435,0.624,0.238,0.952l-0.339,0.564c1.647-0.422,2.867-1.918,2.867-3.698
			c0-2.109-1.709-3.818-3.817-3.818h-0.348c-0.384,0-0.695-0.311-0.695-0.694c0-0.382,0.312-0.694,0.695-0.694h0.348
			c2.875,0,5.206,2.332,5.206,5.207c0,2.392-1.613,4.407-3.812,5.019L196.416,1029.847z M184.875,1017.546h6.248
			c0.767,0,1.389,0.621,1.389,1.389v2.082c0,0.767-0.622,1.389-1.389,1.389h-6.248c-0.767,0-1.388-0.622-1.388-1.389v-2.082
			C183.487,1018.167,184.108,1017.546,184.875,1017.546z M184.875,1035.595h6.248c0.767,0,1.389,0.621,1.389,1.389v2.084
			c0,0.766-0.622,1.387-1.389,1.387h-6.248c-0.767,0-1.388-0.621-1.388-1.387v-2.084
			C183.487,1036.216,184.108,1035.595,184.875,1035.595z M184.875,1026.571h6.248c0.767,0,1.389,0.622,1.389,1.388v2.083
			c0,0.766-0.622,1.389-1.389,1.389h-6.248c-0.767,0-1.388-0.623-1.388-1.389v-2.083
			C183.487,1027.192,184.108,1026.571,184.875,1026.571z"/>
	</g>
</g>
</svg>
